# xmcd
#
# Track frame offsets: 
#        150
#        15655
#        33211
#        51666
#        69653
#        82624
#        98357
#        116860
#        132289
#        142973
#        159018
#        178117
#        189571
#        201307
#        218422
#        229430
#        244981
#        257052
#        273304
#        289750
#        309853
#        318648
#
# Disc length: 4354 seconds
#
# Revision: 0
# Processed by: cddbd v1.5.2PL0 Copyright (c) Steve Scherf et al.
# Submitted via: ExactAudioCopyFreeDBPlugin 1.0
#
DISCID=36110016
DTITLE=Trail Riders - Live and Kickin '98
DYEAR=1998
DGENRE=Country
TTITLE0=Dust On The Bootle
TTITLE1=Little Rock
TTITLE2=Amys Back In Austion
TTITLE3=Love You Like That
TTITLE4=Proud Mary
TTITLE5=Boogie Woogie Choo-Choo Train
TTITLE6=Fast Moving Train
TTITLE7=Nice To Love You Baby
TTITLE8=Taking Care Of Business
TTITLE9=Ain't My Truck
TTITLE10=I Swear
TTITLE11=Mercury Blues
TTITLE12=Summers Coming
TTITLE13=Same Old Love
TTITLE14=Tall Tall Trees
TTITLE15=My Best Friends Girl
TTITLE16=Sweet Home Alabama
TTITLE17=Maybe Tonight
TTITLE18=You Hold The Key
TTITLE19=Far Cry
TTITLE20=Leo Polka 1
TTITLE21=Leo Polka 2
EXTD=
EXTT0=
EXTT1=
EXTT2=
EXTT3=
EXTT4=
EXTT5=
EXTT6=
EXTT7=
EXTT8=
EXTT9=
EXTT10=
EXTT11=
EXTT12=
EXTT13=
EXTT14=
EXTT15=
EXTT16=
EXTT17=
EXTT18=
EXTT19=
EXTT20=
EXTT21=
PLAYORDER=
